<svg width="64" height="64" viewBox="0 0 64 64" fill="none" xmlns="http://www.w3.org/2000/svg">
<path d="M0 2.08372C0 0.932914 0.932914 0 2.08372 0H61.9163C63.0671 0 64 0.932914 64 2.08372V61.9163C64 63.0671 63.0671 64 61.9163 64H2.08372C0.932914 64 0 63.0671 0 61.9163V2.08372Z" fill="url(#paint0_linear_421_51)"/>
<path d="M37.9196 33.5933C37.9196 33.0809 38.3273 32.6654 38.8303 32.6654H46.4195C46.9225 32.6654 47.3302 33.0809 47.3302 33.5933V41.326C47.3302 41.8385 46.9225 42.2539 46.4195 42.2539H38.8303C38.3273 42.2539 37.9196 41.8385 37.9196 41.326V33.5933Z" fill="white"/>
<path d="M37.9196 11.9419C37.9196 11.4294 38.3273 11.014 38.8303 11.014H46.4195C46.9225 11.014 47.3302 11.4294 47.3302 11.9419V19.6745C47.3302 20.187 46.9225 20.6025 46.4195 20.6025H38.8303C38.3273 20.6025 37.9196 20.187 37.9196 19.6745V11.9419Z" fill="white"/>
<path d="M27.2947 22.7676C27.2947 22.2551 27.7024 21.8397 28.2054 21.8397H35.7946C36.2976 21.8397 36.7053 22.2551 36.7053 22.7676V30.5003C36.7053 31.0128 36.2976 31.4282 35.7946 31.4282H28.2054C27.7024 31.4282 27.2947 31.0128 27.2947 30.5003V22.7676Z" fill="white"/>
<path d="M16.6698 33.5933C16.6698 33.0809 17.0775 32.6654 17.5805 32.6654H25.1697C25.6727 32.6654 26.0804 33.0809 26.0804 33.5933V41.326C26.0804 41.8385 25.6727 42.2539 25.1697 42.2539H17.5805C17.0775 42.2539 16.6698 41.8385 16.6698 41.326V33.5933Z" fill="white"/>
<path d="M27.2947 44.4191C27.2947 43.9066 27.7024 43.4912 28.2054 43.4912H35.7946C36.2976 43.4912 36.7053 43.9066 36.7053 44.4191V52.1518C36.7053 52.6642 36.2976 53.0797 35.7946 53.0797H28.2054C27.7024 53.0797 27.2947 52.6642 27.2947 52.1518V44.4191Z" fill="white"/>
<path d="M47.3302 26.6339C47.3302 29.2817 45.2236 31.4282 42.6249 31.4282C40.0262 31.4282 37.9196 29.2817 37.9196 26.6339C37.9196 23.9862 40.0262 21.8397 42.6249 21.8397C45.2236 21.8397 47.3302 23.9862 47.3302 26.6339Z" fill="white"/>
<path d="M47.3302 48.2854C47.3302 50.9332 45.2236 53.0797 42.6249 53.0797C40.0262 53.0797 37.9196 50.9332 37.9196 48.2854C37.9196 45.6376 40.0262 43.4912 42.6249 43.4912C45.2236 43.4912 47.3302 45.6376 47.3302 48.2854Z" fill="white"/>
<path d="M17.0991 30.3722L25.044 22.2771C25.4264 21.8874 26.0804 22.1634 26.0804 22.7145V30.8096C26.0804 31.1512 25.8086 31.4282 25.4733 31.4282H17.5284C16.9875 31.4282 16.7166 30.7619 17.0991 30.3722Z" fill="white"/>
<path d="M17.0991 44.5472L25.044 52.6423C25.4264 53.032 26.0804 52.756 26.0804 52.2048V44.1098C26.0804 43.7681 25.8086 43.4912 25.4733 43.4912H17.5284C16.9875 43.4912 16.7166 44.1575 17.0991 44.5472Z" fill="white"/>
<defs>
<linearGradient id="paint0_linear_421_51" x1="51.3785" y1="64" x2="15.2988" y2="-2.08141e-06" gradientUnits="userSpaceOnUse">
<stop stop-color="#261E72"/>
<stop offset="1" stop-color="#05AA6D"/>
</linearGradient>
</defs>
</svg>
